<?xml version="1.0" encoding="UTF-8" standalone="no"?>
<!DOCTYPE svg PUBLIC "-//W3C//DTD SVG 1.1//EN" "http://www.w3.org/Graphics/SVG/1.1/DTD/svg11.dtd">
<svg width="100%" height="100%" viewBox="0 0 500 500" version="1.1" xmlns="http://www.w3.org/2000/svg" xmlns:xlink="http://www.w3.org/1999/xlink" xml:space="preserve" xmlns:serif="http://www.serif.com/" style="fill-rule:evenodd;clip-rule:evenodd;stroke-linejoin:round;stroke-miterlimit:2;">
    <g transform="matrix(1,0,0,1,0,-11.5049)">
        <g transform="matrix(1,0,0,1,0,23.0098)">
            <g transform="matrix(1.28379,0,0,1.28379,-39.6904,-65.8782)">
                <path d="M93.085,87.92L209.797,87.92C236.116,87.92 256.179,89.933 269.986,93.96C288.539,99.425 304.431,109.133 317.663,123.084C330.894,137.035 340.962,154.114 347.865,174.321C354.769,194.528 358.22,219.445 358.22,249.072C358.22,275.104 354.984,297.54 348.512,316.38C340.602,339.392 329.312,358.017 314.642,372.255C303.568,383.042 288.611,391.455 269.77,397.496C255.676,401.954 236.835,404.184 213.248,404.184L93.085,404.184L93.085,87.92ZM156.942,141.421L156.942,350.898L204.619,350.898C222.453,350.898 235.325,349.891 243.235,347.877C253.59,345.289 262.184,340.902 269.015,334.718C275.847,328.533 281.42,318.358 285.734,304.192C290.049,290.025 292.206,270.717 292.206,246.267C292.206,221.818 290.049,203.049 285.734,189.961C281.42,176.873 275.379,166.662 267.613,159.327C259.846,151.992 249.995,147.03 238.057,144.442C229.141,142.428 211.666,141.421 185.634,141.421L156.942,141.421Z" style="fill-rule:nonzero;"/>
            </g>
            <g transform="matrix(1.28379,0,0,1.28379,-39.6904,-65.8782)">
                <path d="M93.085,87.92L209.797,87.92C236.116,87.92 256.179,89.933 269.986,93.96C288.539,99.425 304.431,109.133 317.663,123.084C330.894,137.035 340.962,154.114 347.865,174.321C354.769,194.528 358.22,219.445 358.22,249.072C358.22,275.104 354.984,297.54 348.512,316.38C340.602,339.392 329.312,358.017 314.642,372.255C303.568,383.042 288.611,391.455 269.77,397.496C255.676,401.954 236.835,404.184 213.248,404.184L93.085,404.184L93.085,87.92ZM156.942,141.421L156.942,350.898L204.619,350.898C222.453,350.898 235.325,349.891 243.235,347.877C253.59,345.289 262.184,340.902 269.015,334.718C275.847,328.533 281.42,318.358 285.734,304.192C290.049,290.025 292.206,270.717 292.206,246.267C292.206,221.818 290.049,203.049 285.734,189.961C281.42,176.873 275.379,166.662 267.613,159.327C259.846,151.992 249.995,147.03 238.057,144.442C229.141,142.428 211.666,141.421 185.634,141.421L156.942,141.421Z" style="fill:rgb(112,0,0);fill-rule:nonzero;"/>
            </g>
        </g>
        <g transform="matrix(1.28379,0,0,1.28379,-39.6904,-65.8782)">
            <path d="M93.085,87.92L209.797,87.92C236.116,87.92 256.179,89.933 269.986,93.96C288.539,99.425 304.431,109.133 317.663,123.084C330.894,137.035 340.962,154.114 347.865,174.321C354.769,194.528 358.22,219.445 358.22,249.072C358.22,275.104 354.984,297.54 348.512,316.38C340.602,339.392 329.312,358.017 314.642,372.255C303.568,383.042 288.611,391.455 269.77,397.496C255.676,401.954 236.835,404.184 213.248,404.184L93.085,404.184L93.085,87.92ZM156.942,141.421L156.942,350.898L204.619,350.898C222.453,350.898 235.325,349.891 243.235,347.877C253.59,345.289 262.184,340.902 269.015,334.718C275.847,328.533 281.42,318.358 285.734,304.192C290.049,290.025 292.206,270.717 292.206,246.267C292.206,221.818 290.049,203.049 285.734,189.961C281.42,176.873 275.379,166.662 267.613,159.327C259.846,151.992 249.995,147.03 238.057,144.442C229.141,142.428 211.666,141.421 185.634,141.421L156.942,141.421Z" style="fill:rgb(178,8,8);fill-rule:nonzero;"/>
        </g>
    </g>
</svg>
