<?xml version="1.0" encoding="UTF-8" standalone="no"?>
<!DOCTYPE svg PUBLIC "-//W3C//DTD SVG 1.1//EN" "http://www.w3.org/Graphics/SVG/1.1/DTD/svg11.dtd">
<svg width="100%" height="100%" viewBox="0 0 20 20" version="1.1" xmlns="http://www.w3.org/2000/svg" xmlns:xlink="http://www.w3.org/1999/xlink" xml:space="preserve" xmlns:serif="http://www.serif.com/" style="fill-rule:evenodd;clip-rule:evenodd;stroke-linejoin:round;stroke-miterlimit:2;">
    <circle cx="10" cy="10" r="10" style="fill:white;"/>
    <g transform="matrix(0.763403,0,0,0.763403,1.21667,2.01653)">
        <g transform="matrix(12,0,0,12,1.71949,15.5697)">
            <path d="M0.612,-0.06L0.531,-0.06L0.531,-0.14C0.472,-0.075 0.403,-0.042 0.326,-0.042C0.249,-0.042 0.183,-0.071 0.128,-0.128C0.073,-0.185 0.045,-0.253 0.045,-0.332C0.045,-0.411 0.073,-0.478 0.128,-0.535C0.183,-0.591 0.251,-0.619 0.331,-0.619C0.41,-0.619 0.477,-0.587 0.531,-0.522L0.531,-0.605L0.612,-0.605L0.612,-0.06ZM0.332,-0.119C0.387,-0.119 0.435,-0.139 0.475,-0.179C0.515,-0.219 0.535,-0.269 0.535,-0.329C0.535,-0.388 0.515,-0.438 0.476,-0.479C0.437,-0.519 0.389,-0.539 0.332,-0.539C0.275,-0.539 0.226,-0.518 0.187,-0.477C0.148,-0.435 0.128,-0.386 0.128,-0.329C0.128,-0.272 0.148,-0.223 0.188,-0.182C0.228,-0.14 0.276,-0.119 0.332,-0.119Z" style="fill:rgb(1,27,64);fill-rule:nonzero;"/>
        </g>
        <g transform="matrix(12,0,0,12,9.91549,15.5697)">
            <path d="M0.613,-0.06L0.532,-0.06L0.532,-0.14C0.473,-0.075 0.404,-0.042 0.327,-0.042C0.249,-0.042 0.183,-0.07 0.128,-0.127C0.073,-0.184 0.046,-0.252 0.046,-0.331C0.046,-0.41 0.074,-0.478 0.129,-0.535C0.184,-0.591 0.252,-0.619 0.332,-0.619C0.411,-0.619 0.478,-0.587 0.532,-0.522L0.532,-0.81L0.613,-0.81L0.613,-0.06ZM0.333,-0.119C0.386,-0.119 0.433,-0.139 0.474,-0.178C0.515,-0.217 0.536,-0.267 0.536,-0.328C0.536,-0.388 0.517,-0.438 0.479,-0.479C0.44,-0.519 0.392,-0.539 0.334,-0.539C0.275,-0.539 0.227,-0.518 0.188,-0.477C0.149,-0.435 0.129,-0.386 0.129,-0.33C0.129,-0.273 0.149,-0.224 0.189,-0.182C0.229,-0.14 0.277,-0.119 0.333,-0.119Z" style="fill:rgb(1,27,64);fill-rule:nonzero;"/>
        </g>
        <g transform="matrix(12,0,0,12,18.1355,15.5697)">
            <path d="M0.151,-0.231C0.17,-0.231 0.186,-0.225 0.199,-0.212C0.212,-0.199 0.218,-0.183 0.218,-0.164C0.218,-0.145 0.212,-0.129 0.199,-0.116C0.186,-0.102 0.17,-0.096 0.152,-0.096C0.133,-0.096 0.117,-0.103 0.104,-0.116C0.091,-0.129 0.084,-0.145 0.084,-0.164C0.084,-0.183 0.091,-0.199 0.104,-0.212C0.117,-0.225 0.133,-0.231 0.151,-0.231Z" style="fill:rgb(1,27,64);fill-rule:nonzero;"/>
        </g>
    </g>
    <circle cx="10" cy="10" r="10" style="fill:white;"/>
    <g transform="matrix(0.763403,0,0,0.763403,1.21667,2.01653)">
        <g>
            <g transform="matrix(12,0,0,12,1.71949,15.5697)">
                <path d="M0.612,-0.06L0.531,-0.06L0.531,-0.14C0.472,-0.075 0.403,-0.042 0.326,-0.042C0.249,-0.042 0.183,-0.071 0.128,-0.128C0.073,-0.185 0.045,-0.253 0.045,-0.332C0.045,-0.411 0.073,-0.478 0.128,-0.535C0.183,-0.591 0.251,-0.619 0.331,-0.619C0.41,-0.619 0.477,-0.587 0.531,-0.522L0.531,-0.605L0.612,-0.605L0.612,-0.06ZM0.332,-0.119C0.387,-0.119 0.435,-0.139 0.475,-0.179C0.515,-0.219 0.535,-0.269 0.535,-0.329C0.535,-0.388 0.515,-0.438 0.476,-0.479C0.437,-0.519 0.389,-0.539 0.332,-0.539C0.275,-0.539 0.226,-0.518 0.187,-0.477C0.148,-0.435 0.128,-0.386 0.128,-0.329C0.128,-0.272 0.148,-0.223 0.188,-0.182C0.228,-0.14 0.276,-0.119 0.332,-0.119Z" style="fill:rgb(1,27,64);fill-rule:nonzero;"/>
            </g>
            <g transform="matrix(12,0,0,12,9.91549,15.5697)">
                <path d="M0.613,-0.06L0.532,-0.06L0.532,-0.14C0.473,-0.075 0.404,-0.042 0.327,-0.042C0.249,-0.042 0.183,-0.07 0.128,-0.127C0.073,-0.184 0.046,-0.252 0.046,-0.331C0.046,-0.41 0.074,-0.478 0.129,-0.535C0.184,-0.591 0.252,-0.619 0.332,-0.619C0.411,-0.619 0.478,-0.587 0.532,-0.522L0.532,-0.81L0.613,-0.81L0.613,-0.06ZM0.333,-0.119C0.386,-0.119 0.433,-0.139 0.474,-0.178C0.515,-0.217 0.536,-0.267 0.536,-0.328C0.536,-0.388 0.517,-0.438 0.479,-0.479C0.44,-0.519 0.392,-0.539 0.334,-0.539C0.275,-0.539 0.227,-0.518 0.188,-0.477C0.149,-0.435 0.129,-0.386 0.129,-0.33C0.129,-0.273 0.149,-0.224 0.189,-0.182C0.229,-0.14 0.277,-0.119 0.333,-0.119Z" style="fill:rgb(1,27,64);fill-rule:nonzero;"/>
            </g>
            <g transform="matrix(12,0,0,12,18.1355,15.5697)">
                <path d="M0.151,-0.231C0.17,-0.231 0.186,-0.225 0.199,-0.212C0.212,-0.199 0.218,-0.183 0.218,-0.164C0.218,-0.145 0.212,-0.129 0.199,-0.116C0.186,-0.102 0.17,-0.096 0.152,-0.096C0.133,-0.096 0.117,-0.103 0.104,-0.116C0.091,-0.129 0.084,-0.145 0.084,-0.164C0.084,-0.183 0.091,-0.199 0.104,-0.212C0.117,-0.225 0.133,-0.231 0.151,-0.231Z" style="fill:rgb(1,27,64);fill-rule:nonzero;"/>
            </g>
        </g>
    </g>
</svg>
